<?xml version="1.0" encoding="utf-8"?>
<svg viewBox="0 0 246 246" xmlns="http://www.w3.org/2000/svg">
  <rect x="184.095" y="88.196" width="62.19" height="70.996" style="fill: rgb(153, 115, 0);"/>
  <rect x="224.546" y="88.196" width="21.739" height="70.996" style="fill: rgb(92, 69, 0);"/>
  <rect x="0.275" y="87.645" width="62.19" height="70.996" style="fill: rgb(153, 115, 0);"/>
  <rect x="0.275" y="87.645" width="21.739" height="70.996" style="fill: rgb(92, 69, 0);"/>
  <rect x="86.406" y="175.152" width="62.19" height="70.996" style="fill: rgb(153, 115, 0);" transform="matrix(0, 1, -1, 0, 334.75528, 97.27668)"/>
  <rect x="126.857" y="175.152" width="21.739" height="70.996" style="fill: rgb(92, 69, 0);" transform="matrix(0, 1, -1, 0, 334.75528, 97.27668)"/>
  <rect x="-153.549" y="-66.731" width="62.19" height="70.996" style="fill: rgb(153, 115, 0);" transform="matrix(0, -1, 1, 0, 154.237335, -91.496185)"/>
  <rect x="-113.098" y="-66.731" width="21.739" height="70.996" style="fill: rgb(92, 69, 0);" transform="matrix(0, -1, 1, 0, 154.237335, -91.496185)"/>
  <rect x="41.351" y="46.459" width="162.356" height="157.127" style="fill: rgb(204, 153, 0);"/>
</svg>